<svg xmlns="http://www.w3.org/2000/svg" viewBox="0 0 120 120" width="120" height="120">
<polyline fill="none" stroke="#000" stroke-width="3" stroke-linecap="round" stroke-linejoin="round" points="85.3,71.43 91.5,71.86 97.67,71.36 103.17,70.03 107.81,68.11 111.72,65.82 8.28,63.34 11.42,60.77 14.45,58.21 17.52,55.74 20.73,53.44 24.21,51.42 28.03,49.78 32.18,48.65 36.59,48.14 41.05,48.29 45.36,49.1 49.36,50.47 53.02,52.3 56.37,54.46 59.5,56.84 62.53,59.37 65.6,61.94 68.85,64.49 72.47,66.9 76.69,69.04"/>
<polyline fill="none" stroke="#000" stroke-width="3" stroke-linecap="round" stroke-linejoin="round" points="75.91,68.81 76.69,69.04 76.67,68.94"/>
<polyline fill="none" stroke="#000" stroke-width="3" stroke-linecap="round" stroke-linejoin="round" points="77.49,69.27 76.69,69.04 76.7,69.14"/>
<text x="34.37" y="48.38" font-family="Helvetica" font-size="15" font-weight="bold" text-anchor="middle" dominant-baseline="central" fill="#000" transform="rotate(0,34.37,48.38)">O</text>
</svg>
