<svg xmlns="http://www.w3.org/2000/svg" viewBox="0 0 120 120" width="120" height="120">
<polyline fill="none" stroke="#000" stroke-width="3" stroke-linecap="round" stroke-linejoin="round" points="8.28,90.08 104.55,90.08"/>
<polyline fill="none" stroke="#000" stroke-width="3" stroke-linecap="round" stroke-linejoin="round" points="104.55,29.92 8.28,29.92"/>
<polyline fill="none" stroke="#000" stroke-width="3" stroke-linecap="round" stroke-linejoin="round" points="8.28,90.08 8.69,88.78"/>
<polyline fill="none" stroke="#000" stroke-width="3" stroke-linecap="round" stroke-linejoin="round" points="8.28,90.08 12.14,91.39"/>
<polyline fill="none" stroke="#000" stroke-width="3" stroke-linecap="round" stroke-linejoin="round" points="104.55,29.92 96.98,31.22"/>
<polyline fill="none" stroke="#000" stroke-width="3" stroke-linecap="round" stroke-linejoin="round" points="104.55,29.92 108.77,28.61"/>
<polyline fill="none" stroke="#000" stroke-width="3" stroke-linecap="round" stroke-linejoin="round" points="104.55,90.08 110.91,89.51 111.72,87.79 108.28,85.01 102.64,81.27 96.72,76.71 91.79,71.51 88.61,65.87 87.51,60 88.61,54.13 91.79,48.49 96.72,43.29 102.64,38.73 108.28,34.99 111.72,32.21 110.91,30.49 104.55,29.92"/>
<text x="39.52" y="68.3" font-family="Helvetica" font-size="15" font-weight="bold" text-anchor="middle" dominant-baseline="central" fill="#000" transform="rotate(0,39.52,68.3)">RIP</text>
</svg>
