<svg xmlns="http://www.w3.org/2000/svg" version="1.2" baseProfile="tiny" width="98.8875" height="184.95" viewBox="26.75 -0.75 146.5 274"><path d="M63,63 C63,20 137,20 137,63 C180,63 180,137 137,137 C137,180 63,180 63,137 C20,137 20,63 63,63 Z" stroke-width="4" stroke="black" fill="rgb(255,255,128)" fill-opacity="1" ></path><path d="M70,90 c10,0 10,20 0,20 m10,-10 l40,0 m10,-10 c-10,0 -10,20 0,20" stroke-width="3" stroke="black" fill="none" ></path><path d="M95,75 L95,60 C95,55 105,55 105,60 L105,75 M90,75 L110,75" stroke-width="3" stroke="black" fill="none" ></path><path d="M30.75,100 L30.75,269.25" stroke-width="4" stroke="black" fill="none" ></path><g transform="translate(0,0)" stroke-width="4" stroke="black" fill="none" ><circle cx="100" cy="10.75" r="7.5" fill="black" ></circle></g></svg>