<svg xmlns="http://www.w3.org/2000/svg" viewBox="0 0 120 120" width="120" height="120">
<polyline fill="none" stroke="#000" stroke-width="3" stroke-linecap="round" stroke-linejoin="round" points="9.36,91.65 9.93,93.16 10.57,94.67 11.28,96.17 12.09,97.67 13.03,99.15 14.12,100.62 15.41,102.08 16.96,103.52 18.85,104.93 21.22,106.3 24.26,107.62 28.22,108.85 33.5,109.96 40.51,110.88 49.52,111.5 60,111.72 70.48,111.5 79.49,110.88 86.5,109.96 91.78,108.85 95.74,107.62 98.78,106.3 101.15,104.93 103.04,103.52 104.59,102.08 105.88,100.62 106.97,99.15 107.91,97.67 108.72,96.17 109.43,94.67 110.07,93.16 110.64,91.65 110.64,89.67 110.64,87.69 110.64,85.72 110.64,83.74 110.64,81.76 110.64,79.78 110.64,77.8 110.64,75.83 110.64,73.85 110.64,71.87 110.64,69.89 110.64,67.91 110.64,65.93 110.64,63.96 110.64,61.98 110.64,60 110.64,58.02 110.64,56.04 110.64,54.07 110.64,52.09 110.64,50.11 110.64,48.13 110.64,46.15 110.64,44.17 110.64,42.2 110.64,40.22 110.64,38.24 110.64,36.26 110.64,34.28 110.64,32.31 110.64,30.33 110.64,28.35 110.07,26.84 109.43,25.33 108.72,23.83 107.91,22.33 106.97,20.85 105.88,19.38 104.59,17.92 103.04,16.48 101.15,15.07 98.78,13.7 95.74,12.38 91.78,11.15 86.5,10.04 79.49,9.12 70.48,8.5 60,8.28 49.52,8.5 40.51,9.12 33.5,10.04 28.22,11.15 24.26,12.38 21.22,13.7 18.85,15.07 16.96,16.48 15.41,17.92 14.12,19.38 13.03,20.85 12.09,22.33 11.28,23.83 10.57,25.33 9.93,26.84 9.36,28.35 9.36,30.33 9.36,32.31 9.36,34.28 9.36,36.26 9.36,38.24 9.36,40.22 9.36,42.2 9.36,44.17 9.36,46.15 9.36,48.13 9.36,50.11 9.36,52.09 9.36,54.07 9.36,56.04 9.36,58.02 9.36,60 9.36,61.98 9.36,63.96 9.36,65.93 9.36,67.91 9.36,69.89 9.36,71.87 9.36,73.85 9.36,75.83 9.36,77.8 9.36,79.78 9.36,81.76 9.36,83.74 9.36,85.72 9.36,87.69 9.36,89.67 9.36,91.65"/>
<text x="37.77" y="62.22" font-family="Helvetica" font-size="15" font-weight="bold" text-anchor="middle" dominant-baseline="central" fill="#000" transform="rotate(0,37.77,62.22)">AA</text>
</svg>
