<svg xmlns="http://www.w3.org/2000/svg" viewBox="0 0 120 120" width="120" height="120">
<polyline fill="none" stroke="#000" stroke-width="3" stroke-linecap="round" stroke-linejoin="round" points="111.72,60 104.83,60"/>
<polyline fill="none" stroke="#000" stroke-width="3" stroke-linecap="round" stroke-linejoin="round" points="103.19,53.1 104.83,60"/>
<polyline fill="none" stroke="#000" stroke-width="3" stroke-linecap="round" stroke-linejoin="round" points="103.19,53.1 98.59,66.9 93.99,53.1"/>
<polyline fill="none" stroke="#000" stroke-width="3" stroke-linecap="round" stroke-linejoin="round" points="93.99,53.1 89.38,66.9 84.78,53.1"/>
<polyline fill="none" stroke="#000" stroke-width="3" stroke-linecap="round" stroke-linejoin="round" points="84.78,53.1 80.18,66.9 75.57,53.1"/>
<polyline fill="none" stroke="#000" stroke-width="3" stroke-linecap="round" stroke-linejoin="round" points="75.57,53.1 70.97,66.9 66.37,53.1"/>
<polyline fill="none" stroke="#000" stroke-width="3" stroke-linecap="round" stroke-linejoin="round" points="66.37,53.1 61.77,66.9 57.16,53.1"/>
<polyline fill="none" stroke="#000" stroke-width="3" stroke-linecap="round" stroke-linejoin="round" points="57.16,53.1 52.56,66.9 47.96,53.1"/>
<polyline fill="none" stroke="#000" stroke-width="3" stroke-linecap="round" stroke-linejoin="round" points="47.96,53.1 43.36,66.9 38.75,53.1"/>
<polyline fill="none" stroke="#000" stroke-width="3" stroke-linecap="round" stroke-linejoin="round" points="38.75,53.1 34.15,66.9 29.55,53.1"/>
<polyline fill="none" stroke="#000" stroke-width="3" stroke-linecap="round" stroke-linejoin="round" points="29.55,53.1 24.95,66.9 20.34,53.1"/>
<polyline fill="none" stroke="#000" stroke-width="3" stroke-linecap="round" stroke-linejoin="round" points="15.17,60 20.34,53.1"/>
<polyline fill="none" stroke="#000" stroke-width="3" stroke-linecap="round" stroke-linejoin="round" points="15.17,60 8.28,60"/>
<polyline fill="none" stroke="#000" stroke-width="3" stroke-linecap="round" stroke-linejoin="round" points="13.12,55.4 8.28,60 13.12,64.6"/>
<text x="108.29" y="59.85" font-family="Helvetica" font-size="15" font-weight="bold" text-anchor="middle" dominant-baseline="central" fill="#000" transform="rotate(0,108.29,59.85)">F</text>
</svg>
