<svg xmlns="http://www.w3.org/2000/svg" viewBox="0 0 120 120" width="120" height="120">
<polyline fill="none" stroke="#000" stroke-width="3" stroke-linecap="round" stroke-linejoin="round" points="82.44,71.38 88.47,71.81 94.48,71.35 99.88,70.1 104.47,68.27 108.34,66.08 111.72,63.68 8.28,61.18 11.24,58.68 14.2,56.25 17.29,53.97 20.61,51.93 24.22,50.22 28.17,48.96 32.4,48.26 36.75,48.19 41.02,48.74 45.04,49.88 48.74,51.49 52.12,53.46 55.26,55.69 58.24,58.1 61.19,60.59 64.23,63.09 67.53,65.52 71.27,67.78"/>
<polyline fill="none" stroke="#000" stroke-width="3" stroke-linecap="round" stroke-linejoin="round" points="94.48,71.35 107.7,70.36 104.47,68.27"/>
<polyline fill="none" stroke="#000" stroke-width="3" stroke-linecap="round" stroke-linejoin="round" points="108.34,66.08 9.78,65.22 8.28,61.18"/>
<polyline fill="none" stroke="#000" stroke-width="3" stroke-linecap="round" stroke-linejoin="round" points="11.24,58.68 17.11,59.28 17.29,53.97"/>
<polyline fill="none" stroke="#000" stroke-width="3" stroke-linecap="round" stroke-linejoin="round" points="20.61,51.93 24.81,54.45 28.17,48.96"/>
<polyline fill="none" stroke="#000" stroke-width="3" stroke-linecap="round" stroke-linejoin="round" points="32.4,48.26 33.69,52.83 41.02,48.74"/>
<polyline fill="none" stroke="#000" stroke-width="3" stroke-linecap="round" stroke-linejoin="round" points="45.04,49.88 43.68,55.47 52.12,53.46"/>
<polyline fill="none" stroke="#000" stroke-width="3" stroke-linecap="round" stroke-linejoin="round" points="55.26,55.69 53.29,60.75 61.19,60.59"/>
<polyline fill="none" stroke="#000" stroke-width="3" stroke-linecap="round" stroke-linejoin="round" points="70.75,67.58 71.27,67.78 71.1,67.64"/>
<text x="28.13" y="48.93" font-family="Helvetica" font-size="15" font-weight="bold" text-anchor="middle" dominant-baseline="central" fill="#000" transform="rotate(0,28.13,48.93)">C/S</text>
</svg>
