<svg xmlns="http://www.w3.org/2000/svg" version="1.1" width="119.99999999999999" height="119.99999999999999" viewBox="0 0 119.99999999999999 119.99999999999999">
<desc>59 59 0 0 119.99999999999999 119.99999999999999 0 0 119.99999999999999 119.99999999999999</desc>
<metadata>
<symbolID>25141200</symbolID>
<anchor>59 59</anchor>
<symbolBounds>0 0 119.99999999999999 119.99999999999999</symbolBounds>
<imageBounds>0 0 119.99999999999999 119.99999999999999</imageBounds>
</metadata>
<g transform="translate(-42.718060882397864,-72.5858515734113) scale(0.33519553072625696,0.33519553072625696)"><g id="0_000_0">        <path d="M392.227,311.404   c46.947,0,85.006,37.841,85.006,84.52s-38.059,84.521-85.006,84.521l-1.479,0.479c0,46.947-37.841,85.005-84.521,85.005   c-46.678,0-84.52-38.058-84.52-85.005l-1.48-0.479c-46.947,0-85.005-37.842-85.005-84.521s38.058-84.52,85.005-84.52l1.48-2.48   c0-46.947,37.841-85.005,84.52-85.005c46.68,0,84.521,38.058,84.521,85.005" fill="#FFFF80" stroke="#000000" stroke-dasharray="0,34"  stroke-linecap="round" stroke-miterlimit="10" stroke-width="17"/>    </g><g><g id="00000000">        <text font-family="sans-serif" font-size="288" text-anchor="middle" x="306" y="501">?</text>    </g><g id="121">        <text font-family="sans-serif" font-size="48" x="265" y="194">X X</text>    </g><g id="122">        <text font-family="sans-serif" font-size="48" x="239" y="193">X X X</text>    </g></g></g>
</svg>